<svg viewBox="0 0 83.1562 85.1533" xmlns="http://www.w3.org/2000/svg" xmlns:xlink="http://www.w3.org/1999/xlink" width="83.156250" height="85.153320" fill="none">
	<rect id="Frame" width="83.156685" height="85.153313" x="0.000000" y="0.000000" fill="rgb(201,175,147)" fill-opacity="0" />
	<g id="Group" opacity="0.899999976">
		<path id="Vector" d="M40.5291 40.4186C41.7487 39.8528 43.2067 40.3604 43.7867 41.5522C44.3656 42.744 43.8463 44.1689 42.6267 44.7347C41.4072 45.3005 39.9492 44.793 39.3702 43.6011C38.7902 42.4093 39.3096 40.9844 40.5291 40.4186Z" opacity="0.899999976" fill="rgb(201,175,147)" fill-rule="nonzero" />
		<path id="Vector" d="M33.6213 26.1977C34.8409 25.6319 36.2989 26.1394 36.8778 27.3313C37.4568 28.5231 36.9374 29.948 35.7179 30.5138C34.4983 31.0796 33.0403 30.572 32.4614 29.3802C31.8824 28.1884 32.4018 26.7635 33.6213 26.1977Z" opacity="0.899999976" fill="rgb(201,175,147)" fill-rule="nonzero" />
		<path id="Vector" d="M26.7131 11.9777C27.9326 11.4119 29.3907 11.9195 29.9696 13.1113C30.5486 14.3031 30.0292 15.728 28.8097 16.2938C27.5901 16.8596 26.1321 16.352 25.5532 15.1602C24.9742 13.9684 25.4936 12.5435 26.7131 11.9777Z" opacity="0.899999976" fill="rgb(201,175,147)" fill-rule="nonzero" />
		<path id="Vector" d="M53.1877 34.5453C54.4073 33.9795 55.8653 34.4871 56.4442 35.6789C57.0232 36.8708 56.5038 38.2966 55.2843 38.8614C54.0647 39.4272 52.6067 38.9197 52.0278 37.7278C51.4488 36.536 51.9682 35.1111 53.1877 34.5453Z" opacity="0.899999976" fill="rgb(201,175,147)" fill-rule="nonzero" />
		<path id="Vector" d="M46.2795 20.3254C47.4991 19.7596 48.9571 20.2671 49.536 21.4589C50.115 22.6508 49.5956 24.0756 48.3761 24.6414C47.1565 25.2072 45.6975 24.6997 45.1196 23.5079C44.5406 22.316 45.06 20.8912 46.2795 20.3254Z" opacity="0.899999976" fill="rgb(201,175,147)" fill-rule="nonzero" />
		<path id="Vector" d="M39.3713 6.10443C40.5909 5.53863 42.0489 6.04617 42.6278 7.238C43.2068 8.42983 42.6874 9.8547 41.4679 10.4205C40.2483 10.9863 38.7903 10.4788 38.2114 9.28693C37.6324 8.09509 38.1518 6.67023 39.3713 6.10443Z" opacity="0.899999976" fill="rgb(201,175,147)" fill-rule="nonzero" />
		<path id="Vector" d="M65.8457 28.6732C67.0653 28.1074 68.5233 28.6149 69.1022 29.8067C69.6812 30.9986 69.1619 32.4244 67.9423 32.9892C66.7228 33.555 65.2648 33.0475 64.6858 31.8557C64.1069 30.6638 64.6272 29.239 65.8457 28.6732Z" opacity="0.899999976" fill="rgb(201,175,147)" fill-rule="nonzero" />
		<path id="Vector" d="M58.9373 14.4521C60.1569 13.8863 61.6149 14.3938 62.1948 15.5857C62.7738 16.7775 62.2545 18.2024 61.0349 18.7682C59.8154 19.334 58.3574 18.8264 57.7784 17.6346C57.1984 16.4427 57.7178 15.0179 58.9373 14.4521Z" opacity="0.899999976" fill="rgb(201,175,147)" fill-rule="nonzero" />
		<path id="Vector" d="M52.0295 0.231136C53.2491 -0.334664 54.7071 0.172877 55.286 1.36471C55.865 2.55654 55.3456 3.98141 54.1261 4.54721C52.9065 5.11301 51.4485 4.60547 50.8696 3.41363C50.2906 2.2218 50.81 0.796935 52.0295 0.231136Z" opacity="0.899999976" fill="rgb(201,175,147)" fill-rule="nonzero" />
	</g>
</svg>
