<svg viewBox="0 0 45.4688 40.4848" xmlns="http://www.w3.org/2000/svg" xmlns:xlink="http://www.w3.org/1999/xlink" width="45.468750" height="40.484802" fill="none">
	<rect id="Frame" width="45.467869" height="40.484779" x="0.000000" y="0.000000" fill="rgb(255,255,255)" fill-opacity="0" />
	<g id="Group">
		<path id="Vector" d="M27.2862 31.5259C24.7607 33.3123 22.1288 34.9398 19.3857 36.3583C16.4339 37.8842 13.421 39.3016 10.1925 40.2243C8.33458 40.7549 6.68537 40.4712 5.09327 39.4256C3.91471 38.652 3.08764 37.6441 2.62291 36.3447C1.72298 33.8283 0.860474 31.3013 0.19193 28.7123C-0.18911 27.2358 0.00584066 25.8919 0.699984 24.5335C1.71708 22.5419 3.11423 20.8369 4.5478 19.1377C6.44907 16.8837 8.5699 14.8359 10.6179 12.7204C11.1919 12.1269 11.9087 11.6679 12.5506 11.1374C13.3088 10.51 14.0384 9.8506 14.8123 9.24353C16.0588 8.26661 17.3309 7.3226 18.5931 6.36407C19.1219 5.96323 19.6624 5.57595 20.1764 5.15672C21.5263 4.05683 23.012 3.15349 24.5126 2.27726C25.8683 1.48623 27.3265 0.902396 28.8094 0.384403C29.1697 0.258536 29.5655 0.206252 29.9495 0.175269C30.9371 0.0958762 31.9276 -0.0115952 32.9161 0.00195972C34.5466 0.0242286 36.1505 0.274995 37.5851 1.0941C39.1664 1.99744 40.7634 2.88432 42.1822 4.03553C42.6804 4.43927 43.1668 4.85851 43.6778 5.24579C44.2676 5.6931 44.7215 6.25079 45.135 6.84818C45.4294 7.27419 45.4678 7.76217 45.4678 8.25015C45.4668 9.42846 45.2768 10.5826 44.7973 11.6621C43.8452 13.8019 42.8045 15.9126 41.1838 17.6457C39.6203 19.3178 38.4023 21.2513 36.8545 22.934C35.0616 24.883 33.2725 26.833 31.2019 28.5042C29.92 29.5382 28.5927 30.52 27.2862 31.5259ZM17.0404 36.1976C17.3466 36.061 17.6647 35.9197 18.0162 35.7638C17.4618 35.0028 16.9479 34.295 16.3433 33.4643C17.326 33.9968 17.8212 34.7888 18.3736 35.6021C18.6561 35.4365 18.9171 35.2845 19.2085 35.1141C18.5518 34.112 17.9384 33.1758 17.325 32.2395C17.3604 32.2114 17.3968 32.1824 17.4323 32.1543C18.3037 32.9386 18.8088 34.023 19.5866 34.9437C19.8613 34.7501 20.1094 34.5758 20.3753 34.3889C19.622 33.2542 18.8905 32.1533 18.1599 31.0515C19.366 31.828 19.9253 33.1138 20.7799 34.2156C21.0025 34.0781 21.1915 33.961 21.4071 33.8274C20.5879 32.591 19.7943 31.3923 19.0017 30.1947C19.0421 30.1646 19.0815 30.1337 19.1219 30.1036C20.2896 31.0283 20.8794 32.3973 21.737 33.6483C22.6083 33.1167 23.5033 32.6132 24.353 32.043C25.6173 31.1938 26.8638 30.3176 28.0886 29.4152C29.9367 28.0549 31.6844 26.5774 33.2893 24.9431C35.2802 22.9156 37.0889 20.7314 38.9626 18.6023C40.7299 16.5942 42.128 14.3809 43.2682 11.9923C43.7881 10.905 44.0953 9.76153 44.0963 8.55514C44.0963 8.24628 44.0854 7.88901 43.9348 7.63824C43.6758 7.20642 43.348 6.79202 42.9709 6.45509C41.1444 4.82752 39.1171 3.47203 36.9835 2.2637C35.674 1.52205 34.2404 1.25579 32.7596 1.2374C31.836 1.22578 30.9085 1.31582 29.9869 1.39425C29.5832 1.42813 29.1717 1.50559 28.7906 1.63824C26.5615 2.40893 24.486 3.48365 22.565 4.8314C21.0389 5.90224 19.558 7.03601 18.0516 8.1359C16.7185 9.10895 15.3568 10.0462 14.0482 11.0512C13.0311 11.8316 12.0012 12.6197 11.1112 13.5317C9.05531 15.6405 7.00635 17.7589 5.10804 20.0129C3.81329 21.5514 2.58451 23.118 1.67474 24.9198C1.13912 25.981 1.00521 27.0315 1.28681 28.1817C1.93861 30.8443 2.86611 33.4178 3.79754 35.9913C4.43753 37.7583 5.84255 38.712 7.56265 39.2958C7.80683 39.3791 8.08547 39.3626 8.47636 39.4072C7.06346 37.6508 6.11529 35.7958 5.14644 33.9474C5.90163 34.2631 6.08772 35.0192 6.48156 35.605C6.88525 36.2034 7.2338 36.8385 7.6109 37.4553C7.99588 38.0856 8.38479 38.7139 8.78454 39.3626C9.09666 39.3074 9.38318 39.2561 9.74551 39.1922C9.47672 38.7788 9.25912 38.4457 9.04448 38.1117C8.81408 37.7544 8.58073 37.3981 8.35624 37.036C8.14357 36.6923 7.92695 36.3496 7.73693 35.9942C7.55084 35.6466 7.22887 35.3513 7.2653 34.9011C7.93089 35.4646 8.27846 36.246 8.75205 36.9353C9.23253 37.6334 9.68545 38.3499 10.1541 39.0635C10.5135 38.957 10.8118 38.8689 11.1446 38.7701C10.417 37.6557 9.57813 36.7214 9.06909 35.5769C10.1069 36.4173 10.674 37.6392 11.6074 38.6045C11.8801 38.5 12.1302 38.4031 12.4138 38.2947C11.9451 37.4678 11.3022 36.8162 11.0196 35.9574C11.7915 36.5326 12.1942 37.4069 12.8667 38.1156C13.1384 38.0023 13.4043 37.8919 13.6839 37.7757C13.2487 37.1774 12.8509 36.6303 12.3833 35.9884C13.1946 36.3873 13.5658 37.0554 14.0876 37.617C14.4155 37.4688 14.7227 37.3304 15.0692 37.1745C14.6843 36.6458 14.3338 36.1627 13.9822 35.6805C14.6439 35.9207 14.9481 36.5393 15.5084 36.9605C15.8835 36.7785 16.2813 36.5858 16.7441 36.3612C16.5767 36.1308 16.4388 35.9458 16.3059 35.757C16.1572 35.5479 16.0095 35.3397 15.8687 35.1257C15.7555 34.9553 15.5556 34.8198 15.6886 34.5196C16.1218 35.058 16.557 35.5982 17.0404 36.1976Z" fill="rgb(59,195,112)" fill-rule="nonzero" />
		<path id="Vector" d="M28.5635 16.4838C29.1267 15.9387 29.5333 15.3733 29.7686 14.7101C29.9656 14.1553 29.9528 13.584 29.6997 13.0341C29.5491 12.7068 29.3669 12.3883 29.2635 12.0475C28.9357 10.9679 29.2281 9.99099 29.8996 9.12638C30.3565 8.53771 30.9206 8.0294 31.3637 7.43298C31.9338 6.66519 32.431 5.84511 32.9607 5.04924C33.3398 4.47897 33.3457 3.90772 33.0129 3.31034C32.8869 3.08474 32.8317 2.82042 32.7451 2.5774C33.0661 2.42055 33.2364 2.52318 33.3713 2.71101C33.7868 3.29291 34.0438 3.93483 33.711 4.61548C33.3683 5.31744 32.9893 6.01842 32.5177 6.64001C31.7989 7.58692 31.0171 8.4922 30.2048 9.36359C29.5511 10.0646 29.2557 10.7191 29.7549 11.9884C29.8395 12.2043 29.9538 12.4115 30.0719 12.6119C30.6961 13.6692 30.6184 14.7013 30.0099 15.7412C29.4359 16.722 28.6935 17.5721 27.9393 18.4164C27.7847 18.5897 27.6163 18.7649 27.5129 18.9682C27.0029 19.9723 26.2989 20.8272 25.398 21.4972C24.5926 22.0956 23.733 22.6271 22.8755 23.1548C22.0031 23.6912 21.1258 24.2276 20.2131 24.6904C18.6515 25.4814 17.0988 25.4214 15.6249 24.4474C15.0725 24.0823 14.5349 23.6873 14.0328 23.2584C13.1565 22.5109 12.2093 22.4867 11.202 22.9108C10.9667 23.0096 10.7452 23.1529 10.5404 23.3049C9.5105 24.0717 8.49144 24.8521 7.46351 25.6208C6.43264 26.3915 5.26392 26.865 4.00068 27.1128C3.68363 27.1748 3.34001 27.29 2.96094 27.0296C3.56844 26.8398 4.11194 26.6684 4.65543 26.5C5.63314 26.1969 6.4671 25.6537 7.28038 25.0525C8.43138 24.2005 9.53511 23.2797 10.8279 22.6242C11.4187 22.325 12.0439 22.205 12.6976 22.1943C13.2727 22.1846 13.7866 22.3434 14.2691 22.6784C14.9721 23.1664 15.6869 23.6495 16.445 24.0446C17.5133 24.6003 18.6279 24.5539 19.7356 24.0184C19.4776 23.9729 19.2167 23.9381 18.9617 23.8819C18.1208 23.698 17.4365 23.2264 16.7453 22.7472C16.062 22.2737 15.36 21.808 14.6088 21.4546C14.1007 21.2155 13.4971 21.0848 12.932 21.0702C11.7249 21.0392 10.4843 21.078 9.39333 21.6299C8.17538 22.2476 6.98992 22.9515 6.06538 23.9904C5.78674 24.3031 5.44508 24.4977 4.99512 24.4716C4.28129 24.4299 3.93274 24.0426 4.03021 23.3455C4.12572 22.6649 4.51168 22.1304 4.97937 21.6473C5.4697 21.1419 5.9748 20.65 6.45824 20.1388C7.58856 18.944 8.75629 17.789 10.0786 16.7995C10.8318 16.236 11.6412 15.746 12.3885 15.1748C13.4745 14.3441 14.5585 13.5056 15.5835 12.6042C16.384 11.9003 17.0831 11.087 17.8451 10.3405C19.9246 8.30243 22.1606 6.44734 24.6212 4.86625C25.5024 4.29985 26.424 3.78089 27.4775 3.57078C27.8132 3.50398 28.1578 3.44879 28.4995 3.4362C29.6495 3.39651 30.3102 3.85157 30.8104 4.90498C30.897 5.08797 30.8763 5.38134 30.7887 5.57304C30.5622 6.07264 30.324 6.58289 29.9951 7.01858C29.2389 8.02068 28.4158 8.97437 27.6399 9.96291C27.1782 10.5506 26.8749 11.2245 27.0452 11.9758C27.1555 12.4609 27.3643 12.9421 27.6193 13.373C28.1765 14.3189 28.597 15.2949 28.5635 16.4838ZM18.0578 22.0142C19.2403 20.2966 20.7881 19.005 22.4856 17.8635C23.4278 17.2293 24.3435 16.5564 25.2759 15.9068C25.8243 15.5243 26.3688 15.1274 27.1703 15.1206C26.9419 14.6926 26.7696 14.3344 26.5657 13.9936C25.5605 12.306 25.6491 10.8866 26.9025 9.37037C27.1004 9.13122 27.1201 8.94145 27.0118 8.68488C26.7824 8.13687 26.5608 7.58692 26.3393 7.03504C26.166 6.60225 25.9878 6.17043 25.8352 5.73086C25.7978 5.62436 25.8539 5.48687 25.8667 5.36391C26.6307 6.36698 26.9931 7.51237 27.5001 8.67519C27.7601 8.40603 27.9757 8.18237 28.1982 7.95194C27.6971 6.8414 27.2116 5.76862 26.7154 4.67067C26.548 4.74426 26.4279 4.78686 26.3176 4.84785C25.0632 5.544 23.8699 6.32341 22.7297 7.1948C20.8748 8.61226 19.134 10.1537 17.5311 11.8354C16.1428 13.2926 14.6501 14.62 12.9999 15.7799C12.6937 15.9949 12.4161 16.2514 12.162 16.4586C12.5775 16.8711 13.0019 17.2322 13.3514 17.6524C14.0594 18.5035 14.7249 19.3894 15.4132 20.256C15.5441 20.4206 15.6761 20.6045 15.8503 20.712C16.5602 21.1506 17.2839 21.5621 18.0578 22.0142ZM11.143 17.1306C11.8558 18.0688 12.545 18.9789 13.2392 19.8832C13.2992 19.9616 13.3918 20.0536 13.4814 20.0681C13.9107 20.1417 14.3449 20.1901 14.9022 20.2647C13.9235 18.9285 12.9871 17.7154 11.9356 16.5719C11.6303 16.7878 11.3763 16.966 11.143 17.1306ZM7.24395 21.717C7.06869 21.5253 6.91411 21.3568 6.73294 21.1593C6.57245 21.3026 6.43855 21.4227 6.31449 21.534C6.41885 21.8274 6.68371 22.0413 6.52913 22.4064C6.32433 22.2195 6.15597 22.0665 5.9492 21.8797C5.4441 22.3918 4.93506 22.8575 4.94688 23.6389C5.34761 23.7105 5.63117 23.6244 5.9108 23.3581C6.41787 22.875 6.97712 22.4441 7.50782 21.9842C7.6624 21.8506 7.79139 21.6889 7.94892 21.5234C7.74117 21.1854 7.55607 20.8834 7.36309 20.5697C6.66402 20.9308 7.48714 21.3142 7.24395 21.717ZM12.8473 20.0672C12.1551 19.1164 11.5142 18.2343 10.8653 17.3436C10.5699 17.5508 10.3179 17.7289 10.1042 17.879C10.7481 18.6516 11.3596 19.3865 12.0055 20.1611C12.2369 20.1349 12.5057 20.1059 12.8473 20.0672ZM27.0315 4.53512C27.5208 5.60887 27.9727 6.59741 28.4581 7.66244C28.6826 7.40587 28.8313 7.23546 28.9918 7.0515C28.6177 6.14526 28.2484 5.25354 27.8634 4.32212C27.6084 4.38795 27.3652 4.44992 27.0315 4.53512ZM29.2862 6.59063C30.1339 5.73183 30.0798 5.35132 29.8395 4.93693C29.5107 4.36762 28.9337 4.1672 28.2533 4.36181C28.5871 5.08313 28.9209 5.80251 29.2862 6.59063ZM9.43961 20.7623C9.80982 20.6491 10.1446 20.5464 10.4606 20.4496C10.0166 19.8396 9.60994 19.28 9.1649 18.6691C8.91678 18.9131 8.72774 19.098 8.53476 19.2878C8.83998 19.7854 9.11764 20.2366 9.43961 20.7623ZM9.39333 18.5229C9.90729 19.1648 10.3829 19.7583 10.8801 20.3789C11.079 20.3218 11.27 20.2676 11.5309 20.193C10.9067 19.464 10.5788 18.611 9.80391 18.0843C9.63948 18.2605 9.5233 18.3844 9.39333 18.5229ZM9.159 20.8843C8.85574 20.3673 8.60171 19.9345 8.31322 19.4436C8.03655 19.7496 7.81699 19.9936 7.59348 20.2424C7.72148 20.4477 7.82486 20.6055 7.92037 20.7682C8.02375 20.9453 8.11926 21.1264 8.23938 21.3423C8.56233 21.1816 8.839 21.0441 9.159 20.8843Z" fill="rgb(59,195,112)" fill-rule="nonzero" />
		<path id="Vector" d="M36.2378 10.5148C36.6001 10.3967 36.9546 10.2195 37.3258 10.1691C38.7869 9.97258 40.312 11.0105 40.6271 12.427C40.7315 12.8966 40.7463 13.3962 40.7266 13.8783C40.6951 14.6413 40.2431 15.199 39.6081 15.565C39.1325 15.839 38.5988 16.0539 38.0632 16.1778C37.0097 16.4218 36.0409 15.9416 35.6322 14.9647C35.2512 14.0526 35.1134 13.0825 35.2926 12.0988C35.4068 11.4772 35.7041 10.9427 36.2378 10.5148Z" fill="rgb(59,195,112)" fill-rule="nonzero" />
		<path id="Vector" d="M9.77696 34.4548C8.85046 33.0935 9.07199 31.9287 9.85376 30.9711C10.6848 29.9536 12.3261 29.5101 13.7006 30.5103C14.8762 31.3662 15.0515 33.0131 14.1318 34.1963C13.7144 34.7326 13.1768 35.1122 12.5427 35.3533C11.4734 35.7589 10.4691 35.4249 9.77696 34.4548Z" fill="rgb(59,195,112)" fill-rule="nonzero" />
		<path id="Vector" d="M8.07152 30.8346C8.44468 31.3516 8.36394 32.0352 7.89035 32.3615C7.43251 32.6771 6.82009 32.5619 6.47351 32.0962C6.06884 31.5511 6.13776 30.9353 6.63991 30.5896C7.10365 30.2721 7.74364 30.3815 8.07152 30.8346Z" fill="rgb(59,195,112)" fill-rule="nonzero" />
		<path id="Vector" d="M35.697 9.82543C35.2687 10.1265 34.7045 10.083 34.4386 9.69569C34.0645 9.14961 34.227 8.68971 34.7803 8.21239C35.1407 7.90159 35.6605 8.03036 35.9461 8.43895C36.2789 8.91724 36.1765 9.48849 35.697 9.82543Z" fill="rgb(59,195,112)" fill-rule="nonzero" />
		<path id="Vector" d="M9.638 29.1664C9.96784 29.6515 9.86348 30.2837 9.40367 30.5751C8.93598 30.8724 8.30682 30.7262 7.99175 30.2469C7.75151 29.8809 7.78498 29.6001 8.12073 29.2932C8.26251 29.1635 8.40823 29.0337 8.57168 28.9321C8.9606 28.691 9.38201 28.7898 9.638 29.1664Z" fill="rgb(59,195,112)" fill-rule="nonzero" />
		<path id="Vector" d="M11.3393 29.4646C10.9051 29.787 10.336 29.7493 10.0741 29.3794C9.83779 29.0454 10.0219 28.2679 10.399 28.0103C10.7574 27.7664 11.294 27.8399 11.5638 28.1701C11.8621 28.5371 11.7548 29.1567 11.3393 29.4646Z" fill="rgb(59,195,112)" fill-rule="nonzero" />
		<path id="Vector" d="M6.5211 38.4758C5.18303 36.7049 4.30871 34.6881 3.33789 32.6868C3.62047 32.6026 3.69038 32.7924 3.76028 32.9163C4.10785 33.5234 4.4436 34.1382 4.77541 34.754C5.35928 35.8364 5.93921 36.9208 6.51717 38.0062C6.58215 38.1292 6.61661 38.2676 6.66486 38.3993C6.61759 38.4254 6.56935 38.4506 6.5211 38.4758Z" fill="rgb(59,195,112)" fill-rule="nonzero" />
		<path id="Vector" d="M36.8651 8.2782C37.0748 8.17557 37.2766 8.04873 37.4972 7.97418C37.9668 7.8154 38.3587 8.1107 38.3547 8.59965C38.3498 9.18929 37.7857 9.70341 37.2215 9.63176C36.9054 9.59109 36.6287 9.35291 36.547 9.03728C36.4624 8.71099 36.5746 8.46119 36.8651 8.2782Z" fill="rgb(59,195,112)" fill-rule="nonzero" />
		<path id="Vector" d="M20.2053 29.4937C21.2175 30.4551 21.8417 31.6818 22.5861 32.8253C22.5457 32.864 22.5054 32.9037 22.465 32.9424C22.3527 32.8785 22.206 32.8408 22.1352 32.7468C21.9176 32.4593 21.7295 32.1504 21.5296 31.8493C21.1407 31.2645 20.7508 30.6816 20.3648 30.0959C20.2555 29.9293 20.1571 29.7551 20.0547 29.5837C20.1049 29.5546 20.1551 29.5237 20.2053 29.4937Z" fill="rgb(59,195,112)" fill-rule="nonzero" />
		<path id="Vector" d="M39.0756 8.60159C39.4173 8.34888 39.8672 8.38955 40.1016 8.69647C40.3231 8.98597 40.2335 9.37034 39.885 9.62208C39.5394 9.87188 39.1613 9.83702 38.924 9.53397C38.6798 9.22221 38.7408 8.84945 39.0756 8.60159Z" fill="rgb(59,195,112)" fill-rule="nonzero" />
		<path id="Vector" d="M23.4765 32.1572C22.4752 31.1154 22.0568 29.8122 21.2051 28.7568C21.3144 28.8082 21.467 28.8304 21.5251 28.9156C22.1907 29.8945 22.8415 30.8821 23.4923 31.8706C23.5159 31.9084 23.4884 31.9771 23.4765 32.1572Z" fill="rgb(59,195,112)" fill-rule="nonzero" />
		<path id="Vector" d="M25.0762 27.0412C25.8058 27.7102 26.0992 28.599 26.3552 29.5063C25.7132 28.7927 25.5173 27.8555 25.0762 27.0412Z" fill="rgb(59,195,112)" fill-rule="nonzero" />
		<path id="Vector" d="M23.3438 28.417C23.8666 28.6745 24.6917 30.062 24.7429 30.7707C24.4219 30.4957 23.5436 29.0173 23.3438 28.417Z" fill="rgb(59,195,112)" fill-rule="nonzero" />
		<path id="Vector" d="M26.3477 25.9984C26.7208 26.5154 26.9128 27.0325 27.0861 27.6269C26.644 27.2619 26.3172 26.5493 26.3477 25.9984Z" fill="rgb(59,195,112)" fill-rule="nonzero" />
		<path id="Vector" d="M28.0972 25.7273C28.2222 25.8996 28.3472 26.072 28.4733 26.2433C28.4536 26.2579 28.4349 26.2724 28.4152 26.2859C28.2901 26.1136 28.1651 25.9422 28.0391 25.7699C28.0588 25.7563 28.0775 25.7418 28.0972 25.7273Z" fill="rgb(59,195,112)" fill-rule="nonzero" />
		<path id="Vector" d="M13.3848 16.1372C13.9873 16.0578 14.2522 16.4015 14.457 16.6774C15.418 17.9719 16.3327 19.2984 17.2602 20.6171C17.3025 20.6781 17.3104 20.7623 17.3645 20.9298C17.1814 20.8223 17.0563 20.7817 16.9815 20.6974C16.6989 20.3799 16.4016 20.0681 16.1672 19.7166C15.3461 18.4841 14.4954 17.2729 13.3848 16.1372Z" fill="rgb(59,195,112)" fill-rule="nonzero" />
		<path id="Vector" d="M15.4727 16.264C16.1757 16.5293 18.2325 19.1716 18.3733 19.9723C18.1921 19.8029 17.9834 19.6547 17.8357 19.4611C17.3188 18.7853 16.8275 18.0911 16.3184 17.4104C16.09 17.1054 15.836 16.8179 15.6016 16.5167C15.5435 16.4441 15.514 16.3492 15.4727 16.264Z" fill="rgb(59,195,112)" fill-rule="nonzero" />
	</g>
</svg>
