<svg viewBox="0 0 55.8809 54.6118" xmlns="http://www.w3.org/2000/svg" xmlns:xlink="http://www.w3.org/1999/xlink" width="55.880859" height="54.611755" fill="none" customFrame="#000000">
	<g id="Group">
		<path id="Vector" d="M25.9308 8.67803C25.7033 7.9309 25.4883 7.22067 25.2701 6.51044C24.5014 4.01797 26.3131 0.225964 29.9075 0.0343147C30.377 0.00869305 30.8487 -0.00258046 31.3193 0.000494131C32.3269 0.00766819 33.2432 0.301804 34.0659 0.882903C35.2658 1.73047 36.2381 2.7748 36.8334 4.11635C37.0495 4.60316 37.1523 5.14019 37.3092 5.66185C37.7372 5.69874 38.2046 5.71719 38.6659 5.78176C39.793 5.94061 40.6677 6.50224 41.2775 7.45229C41.8135 8.28755 42.2945 9.14229 42.3735 10.1631C42.4441 11.0762 42.2956 11.9391 41.8624 12.7519C41.2526 13.8977 40.5285 14.9543 39.4284 15.7014C37.6063 16.9374 35.6522 17.3115 33.534 16.5439C33.4478 16.5131 33.3595 16.4895 33.2203 16.4465C31.7701 17.9469 30.3261 19.4576 28.8635 20.9518C26.7328 23.1266 24.651 25.3485 22.3469 27.3541C20.8239 28.6793 19.354 30.0649 17.8705 31.4321C17.3906 31.8738 17.3968 31.8912 17.6825 32.4744C18.3546 33.8446 18.6174 35.2866 18.5021 36.8034C18.3847 38.3407 17.7002 39.5275 16.4515 40.4806C14.7717 41.7627 12.9028 41.9246 10.9342 41.5506C9.5796 41.2933 8.63322 40.4478 7.94759 39.2784C7.43129 38.3981 7.10198 37.4624 6.9233 36.4344C6.76332 36.4344 6.61788 36.4375 6.47245 36.4365C5.92706 36.4334 5.38063 36.4457 4.83524 36.4211C3.38296 36.3555 2.29426 35.5613 1.30425 34.6204C0.958319 34.2925 0.686145 33.8733 0.442019 33.4613C-0.0129895 32.6906 -0.10129 31.8523 0.106476 30.9832C0.349563 29.9665 0.853397 29.078 1.51825 28.2827C2.52696 27.0754 3.61046 25.9439 4.99522 25.1343C5.98731 24.5542 7.02407 24.1648 8.20314 24.2591C8.50336 24.2826 8.80878 24.2601 9.10485 24.3011C9.38118 24.339 9.6492 24.4343 9.97851 24.5194C10.5904 23.845 11.2126 23.1286 11.8681 22.445C13.7557 20.4763 15.6142 18.4768 17.563 16.5695C19.6178 14.5577 21.7682 12.6391 23.8698 10.6734C24.5637 10.0226 25.2369 9.35034 25.9308 8.67803ZM17.3137 36.8782C17.3251 36.7675 17.3449 36.6579 17.348 36.5472C17.3895 35.2825 17.2005 34.0506 16.6052 32.9263C16.1876 32.1372 16.2936 31.5223 16.9439 30.9442C17.1766 30.7372 17.3729 30.4923 17.5869 30.2637C17.3605 29.8148 17.1475 29.4018 16.9439 28.9857C16.5107 28.0982 16.4826 28.0019 16.545 27.597C16.9979 28.4333 17.4155 29.205 17.8622 30.0321C18.0721 29.8271 18.2372 29.6652 18.4055 29.5012C18.1022 28.7326 17.8144 28.007 17.5277 27.2814C18.2674 27.7139 18.2476 28.5727 18.6954 29.1846C18.9499 29.0964 19.0776 28.9652 18.9644 28.6854C18.7556 28.1689 18.5572 27.6473 18.3525 27.1276C18.2881 26.9647 18.2206 26.8038 18.1292 26.5793C18.2663 26.6203 18.3432 26.6203 18.3598 26.6511C18.6943 27.2886 19.0226 27.9301 19.3748 28.6178C19.6178 28.3985 19.8734 28.1689 20.1425 27.9281C20.0095 27.6678 19.8931 27.4402 19.7633 27.184C19.2148 27.3203 18.9873 26.9288 18.7598 26.565C18.6133 26.3293 18.685 26.2094 18.9758 26.1294C19.0423 26.111 19.1171 26.1212 19.194 26.1182C19.0527 25.6662 19.0527 25.6662 19.1348 25.4171C19.5493 26.153 19.9627 26.8868 20.4074 27.677C20.7626 27.3562 21.0483 27.1 21.3246 26.8509C21.0753 26.2821 20.825 25.782 20.6359 25.2614C20.451 24.75 20.1778 24.256 20.1414 23.7025C20.1788 23.6892 20.2162 23.6759 20.2536 23.6636C20.3824 23.9044 20.5112 24.1453 20.6037 24.3185C20.9849 24.4353 21.2966 24.5317 21.6384 24.6362C21.4846 24.298 21.3392 23.9803 21.1969 23.6616C21.0649 23.3654 20.8125 23.1061 20.8686 22.651C21.0774 22.9288 21.255 23.1204 21.3776 23.3408C21.6404 23.8122 21.8721 24.3 22.1225 24.7787C22.2721 25.0646 22.432 25.3454 22.6128 25.6764C22.886 25.4171 23.0969 25.2183 23.3015 25.0236C22.753 23.8686 22.2243 22.7597 21.7641 21.5329C22.084 21.5995 22.1703 21.7584 22.2513 21.9244C22.512 22.4594 22.7728 22.9944 23.0346 23.5293C23.2247 23.9178 23.4169 24.3062 23.6288 24.7387C23.8958 24.4702 24.1046 24.2621 24.2895 24.0756C23.7752 22.8591 23.2735 21.6733 22.7603 20.4589C23.0823 20.4466 23.2049 20.6648 23.3088 20.8719C23.4761 21.2039 23.6194 21.5483 23.7669 21.8885C24.0308 22.4963 24.2905 23.1051 24.5866 23.7948C24.9294 23.4351 25.2172 23.1337 25.4914 22.8458C24.7216 21.6897 24.3788 20.423 23.8677 19.2249C24.7466 20.2026 25.0634 21.4776 25.7064 22.6275C25.9558 22.3692 26.1708 22.1468 26.3401 21.9715C25.7895 20.7386 25.267 19.5672 24.7445 18.3958C24.9616 18.4768 25.1382 18.5936 25.2452 18.7555C25.4083 19.0025 25.5309 19.2772 25.6555 19.5467C25.9734 20.2303 26.283 20.917 26.632 21.6836C26.9915 21.3115 27.2813 21.0113 27.5587 20.7243C26.9624 19.4709 26.5988 18.1847 25.7272 17.046C26.1978 17.2449 26.4222 17.4191 26.5915 17.7522C26.8855 18.3323 27.1608 18.9226 27.4423 19.5088C27.5753 19.7876 27.7052 20.0674 27.8693 20.4179C28.0625 20.2119 28.183 20.0458 28.3388 19.9259C28.6235 19.7066 28.5778 19.4975 28.4438 19.2003C28.023 18.2636 27.6449 17.3084 27.2512 16.3594C28.2152 17.0727 28.2963 18.2943 28.9331 19.2762C29.1471 19.0425 29.3289 18.8447 29.4909 18.6674C29.3725 18.3507 29.2707 18.0904 29.1793 17.828C29.0806 17.5472 28.9912 17.2633 28.8988 16.9805C28.8209 16.7417 28.743 16.5029 28.665 16.2641C29.2717 16.837 29.359 17.6487 29.7797 18.3569C30.0716 18.0596 30.3272 17.7993 30.5609 17.5595C30.296 16.7273 30.0467 15.9453 29.7974 15.1644C29.8431 15.1459 29.8877 15.1285 29.9335 15.1101C30.456 15.6963 30.4425 16.5377 30.8653 17.2172C31.66 16.5972 32.2958 15.848 32.9388 15.0916C32.729 14.2584 32.3415 13.458 32.3145 12.5571C32.4516 12.6371 32.5368 12.7416 32.5804 12.8615C32.8173 13.5072 33.0614 14.1529 33.2681 14.8077C33.4063 15.2443 33.7668 15.3181 34.1885 15.5354C33.8821 14.6151 33.6161 13.8198 33.3512 13.0235C33.8686 13.3012 33.9548 13.8085 34.1355 14.2543C34.3236 14.7165 34.4659 15.1962 34.6279 15.6697C34.9396 15.7301 35.2159 15.8254 35.5265 15.7578C35.4081 15.3437 35.2886 14.9727 35.1962 14.5946C35.1255 14.3045 35.0237 14.0463 34.8388 13.7952C34.5791 13.4406 34.4399 13.0204 34.47 12.4618C35.3925 13.457 35.4891 14.7135 35.9888 15.8039C36.7659 15.806 37.4546 15.5774 38.1174 15.2638C39.5011 14.6089 40.3156 13.4436 40.9773 12.1421C41.2193 11.6665 41.3097 11.1582 41.3035 10.6294C41.2879 9.51432 40.7519 8.60424 40.1275 7.729C39.7743 7.23297 39.2902 6.93371 38.697 6.80252C38.0457 6.65904 37.4006 6.54631 36.7981 6.98495C36.609 7.12331 36.3701 7.14585 36.1644 6.987C35.9587 6.82815 35.9327 6.61702 36.0314 6.3854C36.2194 5.94266 36.1041 5.50709 35.9878 5.07563C35.8309 4.49145 35.5016 3.99337 35.1536 3.50451C33.8488 1.67205 32.1576 0.663582 29.8078 1.03971C29.6966 1.05713 29.5823 1.05611 29.4701 1.07455C28.8074 1.18421 28.1882 1.40866 27.701 1.876C26.418 3.10891 25.8436 4.56627 26.3755 6.32289C26.5739 6.97983 26.8325 7.61934 27.0798 8.26091C27.3187 8.88198 27.274 9.0521 26.7266 9.4272C26.6185 9.50099 26.5136 9.58093 26.4191 9.6701C25.2753 10.7462 24.1316 11.8223 22.993 12.9035C22.031 13.8177 21.0816 14.7442 20.1134 15.6533C19.3374 16.383 18.5042 17.0563 17.7625 17.8178C15.8064 19.8255 13.8856 21.866 11.9533 23.8962C11.5409 24.3298 11.1482 24.7797 10.7369 25.2132C10.206 25.782 9.99097 25.8086 9.35001 25.3762C9.05706 25.1784 8.74541 25.0851 8.39636 25.08C8.15224 25.0759 7.90604 25.0779 7.66399 25.0533C7.04173 24.9908 6.47348 25.1456 5.92602 25.4243C4.75422 26.0198 3.76732 26.8376 2.91029 27.8194C2.24543 28.5809 1.61278 29.3588 1.22218 30.3047C0.674718 31.6309 0.895989 32.7972 1.92651 33.818C1.87249 33.5546 1.78315 33.3014 1.70005 33.0452C1.60863 32.7624 1.51929 32.4785 1.4393 32.1915C1.3136 31.7416 1.31776 31.7406 1.42683 31.4095C1.50163 31.6125 1.56396 31.7846 1.63044 31.9558C1.9182 32.7019 2.21427 33.4439 2.49164 34.1931C2.58409 34.4421 2.75031 34.561 3.05261 34.6625C2.86146 34.0844 2.68486 33.5833 2.52904 33.0749C2.37944 32.584 2.21323 32.0931 2.25167 31.5643C2.38048 31.7365 2.44489 31.923 2.51138 32.1105C2.80744 32.953 3.11701 33.7903 3.3975 34.6368C3.55332 35.1072 3.89926 35.2241 4.37712 35.264C4.15065 34.726 3.92834 34.2412 3.74031 33.7431C3.55021 33.2389 3.39231 32.7224 3.2209 32.212C3.27076 32.1936 3.32063 32.1741 3.37049 32.1546C3.97509 33.1631 4.22129 34.3458 4.88511 35.3645C5.0534 35.3604 5.23312 35.3553 5.45958 35.3491C5.09391 34.5436 4.7189 33.7954 4.55268 32.9663C4.66695 33.0391 4.7459 33.1293 4.79681 33.2328C5.07002 33.7831 5.3235 34.3427 5.60814 34.8869C5.91667 35.4772 6.04029 35.5049 6.75501 35.2138C6.61788 34.9535 6.47348 34.6983 6.34779 34.4339C6.22936 34.1838 5.94887 33.9973 6.02367 33.5361C6.41531 34.1654 6.74462 34.6963 7.06354 35.2087C7.19132 35.1944 7.26611 35.1862 7.34091 35.1769C8.06082 35.0939 8.25093 35.3122 8.10653 36.0214C8.02238 36.4334 8.06913 36.8372 8.31534 37.1959C8.96772 38.1511 9.62738 39.1022 10.2767 40.0604C10.4917 40.3771 10.794 40.495 11.2137 40.5442C10.4803 39.4363 9.78632 38.3878 9.05914 37.2902C9.36767 37.3456 9.51623 37.5259 9.65127 37.7186C10.1364 38.4042 10.6091 39.0981 11.1036 39.7776C11.8245 40.7665 11.8307 40.7635 13.0805 40.7061C13.5209 40.6856 13.9552 40.6313 14.4143 40.4693C14.0476 40.1086 13.7339 39.7929 13.4098 39.4875C13.3495 39.4301 13.2529 39.3994 13.1667 39.3809C12.5216 39.2395 12.2359 38.9187 12.1268 38.1285C13.0514 38.8787 13.925 39.588 14.8226 40.3166C15.0542 40.168 15.2641 40.0338 15.4895 39.8893C15.0792 39.4158 14.7145 38.9966 14.3458 38.5703C14.0476 38.8347 13.738 38.8029 13.4524 38.6092C13.2062 38.4432 12.9776 38.2454 12.7647 38.0384C12.6182 37.8969 12.4582 37.6879 12.6306 37.5034C12.8259 37.2933 12.9942 37.5116 13.1532 37.6356C13.3952 37.8252 13.5905 38.0876 13.952 38.1552C13.7869 37.7473 13.3495 37.5321 13.2716 36.9633C14.2668 37.8242 14.9431 38.805 15.7503 39.7232C15.9611 39.5398 16.1211 39.4004 16.2728 39.2692C15.7534 38.681 15.2745 38.1388 14.7997 37.6028C14.1723 37.6633 13.9801 37.5546 13.6684 36.9223C13.8492 36.8864 14.0092 36.8557 14.1754 36.8229C14.1058 36.7081 14.03 36.582 13.9531 36.4549C13.9957 36.4221 14.0372 36.3894 14.0798 36.3555C14.995 37.1457 15.6838 38.1408 16.4577 39.1268C16.6312 38.8634 16.7818 38.6348 16.9158 38.4319C16.4307 37.8221 15.983 37.2502 15.5259 36.6866C15.2849 36.3894 15.0948 36.0255 14.6429 35.9692C14.5785 35.961 14.4974 35.8974 14.4683 35.838C14.4164 35.7334 14.3406 35.5818 14.3811 35.5059C14.4268 35.4209 14.6314 35.3266 14.6958 35.3614C14.9171 35.4823 15.2225 35.6248 15.2797 35.8205C15.3597 36.0901 15.5176 36.2725 15.6724 36.4703C15.9476 36.8239 16.2416 37.1631 16.5284 37.5075C16.679 37.6879 16.8327 37.8662 17.0239 38.0906C17.2368 37.6592 17.321 37.2718 17.3116 36.8608L17.3137 36.8782ZM21.9376 25.2091C21.5947 25.2224 21.3122 25.2327 20.9839 25.245C21.1886 25.6805 21.388 26.1048 21.6186 26.5968C21.8877 26.3395 22.1058 26.1305 22.3167 25.9296C22.1692 25.6498 22.0497 25.4223 21.9376 25.2091ZM9.09238 38.9802C9.11212 38.9659 9.1329 38.9515 9.15264 38.9372C9.06018 38.8296 8.96876 38.7209 8.80774 38.5334C8.94071 38.7414 9.01655 38.8603 9.09238 38.9802Z" fill="rgb(119,78,250)" fill-rule="nonzero" transform="matrix(0.921975,0.38725,-0.402574,0.915388,16.7988,0)" />
		<path id="Vector" d="M11.762 0.443578C11.0483 0.793057 10.3346 1.14254 9.62094 1.49201C10.1248 0.673148 10.8852 0.240655 11.7776 0.0244089C12.2305 -0.0852517 12.4985 0.185312 12.3354 0.62088C12.1411 1.13844 11.897 1.65087 11.5978 2.11718C10.7688 3.40954 9.73937 4.54611 8.64547 5.62325C7.03425 7.21076 5.43444 8.80955 3.78685 10.3602C3.01292 11.0889 2.14862 11.7243 1.3082 12.3822C1.1077 12.5401 0.851113 12.6487 0.602832 12.7215C0.176911 12.8455 -0.0869531 12.6179 0.0262797 12.1967C0.131202 11.8073 0.30261 11.4271 0.499988 11.0725C1.26353 9.69913 2.22549 8.46417 3.27055 7.28865C4.57637 5.81797 5.96944 4.4385 7.55886 3.26401C7.96504 2.96372 8.39719 2.69521 8.82311 2.42259C8.90414 2.37135 9.0153 2.36622 9.16489 2.41439C9.1036 2.48716 9.0527 2.57427 8.97894 2.63166C8.12606 3.305 7.23786 3.93734 6.42133 4.65065C4.2242 6.5692 2.30132 8.72141 0.864618 11.2641C0.689055 11.5746 0.458434 11.8811 0.486482 12.3669C0.697365 12.248 0.858384 12.1701 1.0059 12.0727C2.10498 11.3451 3.08045 10.4729 4.01332 9.55155C5.59546 7.98863 7.19111 6.43801 8.76494 4.86689C9.71859 3.91377 10.5808 2.88173 11.307 1.74721C11.5449 1.37621 11.7651 0.991881 11.8669 0.560413C11.8316 0.521468 11.7963 0.482523 11.762 0.443578Z" fill="rgb(119,78,250)" fill-rule="nonzero" transform="matrix(0.921975,0.38725,-0.402574,0.915388,26.1113,16.251)" />
		<path id="Vector" d="M0.384806 3.55654C-0.249921 2.67516 -0.0940974 1.50066 0.812804 0.895994C1.31976 0.557788 1.89423 0.284149 2.47702 0.0996734C3.19173 -0.127847 3.90333 0.0515046 4.52456 0.461451C5.1063 0.84475 5.34731 1.68821 5.14682 2.47019C4.98996 3.07793 4.4695 3.50735 3.75998 3.61189C3.70388 3.62009 3.64674 3.63238 3.59169 3.62623C2.82814 3.5381 2.10719 3.64776 1.39767 3.96444C1.01018 4.13662 0.664252 3.94394 0.384806 3.55654ZM4.46638 1.27109C4.02176 0.664374 3.21459 0.340517 2.6692 0.511669C2.22666 0.650026 1.79866 0.839626 1.38209 1.04357C1.18575 1.13889 1.01122 1.30082 0.863707 1.46479C0.435708 1.94033 0.369222 2.7182 0.690222 3.23371C0.930193 3.61906 1.06732 3.68465 1.47039 3.47763C2.05837 3.17632 2.65985 3.05436 3.32055 3.12815C3.81503 3.18349 4.29809 3.04719 4.51625 2.57267C4.7344 2.09816 4.67311 1.59393 4.46638 1.27109Z" fill="rgb(119,78,250)" fill-rule="nonzero" transform="matrix(0.921975,0.38725,-0.402574,0.915388,41.5469,12.7075)" />
		<path id="Vector" d="M4.8039 1.03094C5.40539 1.82008 5.2693 2.97306 4.58679 3.52956C4.29384 3.76835 3.9531 3.84522 3.58535 3.80525C3.28721 3.77245 2.98802 3.73248 2.69403 3.67099C2.07904 3.54186 1.47756 3.52136 0.858415 3.69251C0.245504 3.86162 0.0200773 3.67919 0.00137834 3.04275C-0.0204372 2.29357 0.216417 1.63048 0.732717 1.05964C1.19292 0.549253 1.6874 0.15878 2.41147 0.041945C3.29448 -0.100511 4.00296 0.113687 4.57952 0.779849C4.67613 0.891559 4.77793 1.00122 4.8039 1.03094ZM0.467814 3.34406C0.58728 3.31024 0.681814 3.30101 0.757649 3.25899C1.25629 2.98126 1.7944 2.93309 2.34395 3.00995C2.73455 3.06427 3.11788 3.16368 3.5064 3.23542C4.16294 3.35636 4.49745 3.13396 4.64808 2.48317C4.8039 1.80984 4.21177 0.823916 3.46485 0.541053C3.29344 0.476487 3.10022 0.431394 2.91842 0.436518C2.36576 0.451891 1.8505 0.603571 1.36848 0.884384C0.38263 1.46138 0.180057 2.46575 0.467814 3.34406Z" fill="rgb(119,78,250)" fill-rule="nonzero" transform="matrix(0.921975,0.38725,-0.402574,0.915388,9.64648,26.5132)" />
		<path id="Vector" d="M0.0966118 0C0.778085 0.538053 1.18427 1.29953 1.73589 1.99848C1.42943 2.06817 1.34217 1.87653 1.23725 1.73919C0.819638 1.19397 0.411377 0.642588 0 0.0932621C0.0322038 0.0625162 0.064408 0.0317707 0.0966118 0Z" fill="rgb(119,78,250)" fill-rule="nonzero" transform="matrix(0.921975,0.38725,-0.402574,0.915388,11.3008,39.3485)" />
		<path id="Vector" d="M1.76913 2.04974C1.63097 1.96775 1.45229 1.91651 1.35983 1.79968C0.900669 1.21755 0.464358 0.619023 0 0C0.46228 0.200875 1.01598 0.855771 1.76809 2.06614C1.76809 2.06614 1.76913 2.04974 1.76913 2.04974Z" fill="rgb(119,78,250)" fill-rule="nonzero" transform="matrix(0.921975,0.38725,-0.402574,0.915388,17.1172,37.8871)" />
		<path id="Vector" d="M0.707909 0.905071C0.261214 0.868176 0.164605 0.518697 0.00566452 0.245059C-0.0213449 0.19894 0.0544883 0.0288124 0.101235 0.0206135C0.234205 -0.00398323 0.403534 -0.0173067 0.511572 0.0441851C0.76089 0.186641 0.82218 0.501275 0.707909 0.905071Z" fill="rgb(119,78,250)" fill-rule="nonzero" transform="matrix(0.921975,0.38725,-0.402574,0.915388,45.707,25.5309)" />
		<path id="Vector" d="M0.640431 0.90165C0.250873 0.818636 -0.0358413 0.491705 0.00363398 0.19142C0.0129834 0.118655 0.100243 0.00592005 0.158417 0.000795737C0.253988 -0.0063783 0.376571 0.0356408 0.451366 0.0991823C0.601995 0.22729 0.653936 0.491705 0.640431 0.90165Z" fill="rgb(119,78,250)" fill-rule="nonzero" transform="matrix(0.921975,0.38725,-0.402574,0.915388,44.4297,25.192)" />
		<path id="Vector" d="M0.61779 0.347917C0.624023 0.358165 0.684276 0.421707 0.686354 0.487298C0.68947 0.58671 0.683237 0.733266 0.621946 0.775285C0.556499 0.820379 0.416255 0.782459 0.318604 0.750688C0.256274 0.730191 0.206409 0.659475 0.1607 0.602082C-0.0273298 0.366363 -0.0533003 0.101948 0.0983704 0.0220089C0.237575 -0.0487068 0.411061 0.0486562 0.61779 0.347917Z" fill="rgb(119,78,250)" fill-rule="nonzero" transform="matrix(0.921975,0.38725,-0.402574,0.915388,24.7578,30.7622)" />
	</g>
</svg>
