<svg viewBox="0 0 431.691 402.838" xmlns="http://www.w3.org/2000/svg" xmlns:xlink="http://www.w3.org/1999/xlink" width="431.691406" height="402.838379" fill="none" customFrame="#000000">
	<path id="Vector" d="M147.76 357.115C140.132 357.115 132.431 356.158 124.928 355.225C118.589 354.436 112.602 353.692 106.656 353.477C92.07 352.949 78.6025 350.547 66.6273 346.335C52.7816 341.467 41.2318 334.249 32.2982 324.883C14.1062 305.811 10.7217 278.46 7.44824 252.008C6.64219 245.495 5.88084 239.343 4.90227 233.327C1.42067 211.922 -2.17932 189.789 1.63406 167.972C3.55349 156.992 7.63439 146.768 11.5812 136.88C14.4034 129.81 17.3213 122.499 19.4178 114.983C24.6659 96.171 29.403 81.789 42.6344 68.0013L44.4239 66.2135C52.6611 57.9865 61.1792 49.4796 68.8513 40.6847C72.5327 36.4648 75.0947 31.2822 77.5729 26.2699C79.7606 21.8443 82.023 17.268 85.0809 13.2411C90.3814 6.26122 97.5363 1.98577 106.347 0.533395C113.992 -0.726308 122.618 0.255204 131.292 3.37218C146.838 8.95829 155.723 16.7909 161.002 29.5614C162.88 34.1045 163.891 38.9852 164.868 43.7057C165.901 48.6953 166.969 53.8545 169.061 58.4972C171.584 64.0941 175.335 69.261 179.909 73.4395C181.527 74.9173 184.303 76.1159 186.988 77.2751C189.59 78.3983 192.046 79.4591 193.262 80.7411C198.017 85.759 193.953 93.0607 189.028 97.7885C185.109 101.55 178.638 104.687 170.805 106.62C163.869 108.332 156.314 108.959 150.597 108.296C146.552 107.827 143.109 105.974 139.778 104.181C134.58 101.382 130.091 98.9655 124.542 102.476C124.132 102.735 123.72 103.003 123.306 103.272C123.163 103.365 123.02 103.458 122.877 103.551C122.795 103.699 122.711 103.845 122.628 103.989C120.584 107.506 118.294 111.116 114.771 113.233C107.612 117.536 99.1135 116.315 92.0371 109.968C79.242 98.4915 67.6541 91.2875 56.6114 87.944C51.7587 86.4745 48.0396 86.2979 47.1372 87.4941C46.5602 88.2582 47.045 89.9245 48.5024 92.1853C51.9071 97.467 58.6367 100.46 63.5505 102.644L95.4276 116.818C96.0835 117.11 96.8308 117.428 97.639 117.771C102.947 120.028 110.218 123.119 112.708 127.366C113.568 128.832 113.893 130.471 114.208 132.055L114.258 132.304C115.963 140.848 119.058 148.467 122.335 156.533C122.664 157.343 122.994 158.156 123.324 158.973C124.839 162.722 126.534 166.234 128.174 169.63C129.71 172.812 131.298 176.102 132.697 179.514C139.242 195.48 153.498 207.038 166.579 216.238C171 219.347 175.452 221.723 180.165 224.239C182.104 225.274 184.11 226.345 186.094 227.461C193.175 231.448 196.778 237.877 200.593 244.683C200.909 245.247 201.227 245.815 201.549 246.384L216.299 272.474C216.348 272.561 216.398 272.65 216.449 272.739C218.676 267.814 221.157 262.994 223.608 258.234C226.046 253.499 228.566 248.602 230.772 243.723C241.759 219.415 243.791 195.669 236.496 176.859L238.124 176.228C242.119 186.528 243.436 198.09 242.038 210.593C240.812 221.563 237.556 232.951 232.363 244.441C230.14 249.361 227.608 254.277 225.161 259.032C222.527 264.148 219.856 269.335 217.514 274.638C221.913 282.561 229.269 297.147 224.532 306.09C221.255 312.277 217.149 311.791 215.536 311.294C211.167 309.949 208.141 304.092 208.791 298.237C209.7 290.045 212.294 282.26 215.566 274.73C215.282 274.221 215.017 273.754 214.779 273.333L200.029 247.243C199.706 246.672 199.387 246.102 199.07 245.536C195.378 238.949 191.891 232.728 185.238 228.982C183.271 227.875 181.274 226.809 179.343 225.778C174.791 223.348 170.084 220.836 165.575 217.665C159.771 213.583 152.262 208.042 145.66 201.371C138.896 194.537 134.127 187.604 131.082 180.176C129.703 176.813 128.197 173.692 126.602 170.388C124.95 166.966 123.242 163.428 121.706 159.626C121.376 158.81 121.046 157.998 120.718 157.189C117.409 149.044 114.284 141.351 112.546 132.645L112.496 132.395C112.196 130.886 111.914 129.46 111.203 128.248C109.004 124.498 101.754 121.416 96.9562 119.377C96.1383 119.029 95.3822 118.707 94.7186 118.413L62.8415 104.238C57.7269 101.964 50.7221 98.8496 47.0352 93.1298C45.0704 90.0816 44.6478 87.8938 45.7437 86.4421C47.5783 84.0113 52.9419 85.0086 57.1182 86.2728C68.4109 89.692 80.2146 97.0174 93.2043 108.668C99.6793 114.476 107.406 115.623 113.871 111.737C116.309 110.271 118.094 108.005 119.703 105.464C117.629 106.56 115.449 107.305 113.053 107.056C107.686 106.498 104.293 100.97 103.412 96.0698C102.968 93.6055 102.927 91.0896 102.887 88.6568C102.848 86.3011 102.808 83.8651 102.394 81.5471C101.769 78.0475 100.271 74.6814 98.8215 71.4262C98.2526 70.148 97.6645 68.8261 97.1319 67.505C93.8787 59.4354 95.1842 50.0398 100.908 40.3332C105.493 32.5562 112.884 24.8758 120.678 19.7878C131.882 12.4735 139.048 14.5559 142.322 16.4474C153.236 22.7539 149.385 37.1032 146.837 46.5983L146.735 46.9784C145.629 51.1037 145.474 55.6752 145.325 60.0958C145.08 67.3127 144.826 74.7756 140.552 80.9785C138.918 83.3509 136.723 84.811 134.6 86.2236C132.918 87.343 131.329 88.4002 130.049 89.8648C128.181 92.0031 126.731 95.2652 125.328 98.4199C125.006 99.1459 124.689 99.8576 124.372 100.548C130.451 97.1756 135.61 99.9536 140.607 102.643C143.792 104.358 147.086 106.132 150.799 106.562C162.011 107.863 179.973 104.061 187.82 96.5291C192.167 92.3552 195.87 86.0299 191.994 81.9408C191.026 80.9188 188.728 79.9268 186.296 78.8769C183.479 77.6608 180.565 76.4028 178.731 74.7271C173.983 70.3898 170.089 65.025 167.47 59.2134C165.298 54.3956 164.21 49.1407 163.158 44.0586C162.197 39.4174 161.204 34.618 159.389 30.227C154.316 17.9574 145.737 10.417 130.701 5.01374C122.307 1.99694 113.984 1.043 106.632 2.25488C98.2764 3.63187 91.4937 7.68288 86.4723 14.2955C83.5149 18.1898 81.2903 22.6901 79.1386 27.0423C76.6115 32.1541 73.9981 37.4404 70.1676 41.831C62.456 50.6709 53.9163 59.1995 45.6581 67.4474L43.8819 69.2216C30.946 82.7024 26.279 96.8866 21.1001 115.452C18.9781 123.058 16.042 130.413 13.2031 137.526C9.28945 147.331 5.24243 157.47 3.35443 168.272C-0.408658 189.8 3.16758 211.785 6.62578 233.047C7.60959 239.096 8.37269 245.264 9.18083 251.794C12.4197 277.964 15.7682 305.024 33.5621 323.679C45.0134 335.685 67.001 350.297 106.719 351.733C112.742 351.951 119.046 352.734 125.144 353.493C134.703 354.681 144.588 355.91 154.132 355.118C163.239 354.362 171.996 350.753 181.691 343.76C183.042 342.786 184.462 341.811 185.835 340.868C194.008 335.252 202.46 329.446 203.754 319.19L205.487 319.408C204.095 330.441 195.315 336.473 186.824 342.306C185.459 343.244 184.048 344.213 182.714 345.176C172.75 352.363 163.714 356.074 154.277 356.858C152.114 357.037 149.94 357.115 147.76 357.115ZM216.635 276.671C213.674 283.681 211.361 290.901 210.526 298.43C209.896 304.102 212.903 308.659 216.05 309.627C218.618 310.417 221.083 308.872 222.988 305.274C227.06 297.588 220.765 284.291 216.635 276.671ZM135.366 16.4097C129.809 16.4097 124.253 19.5385 121.632 21.2499C114.052 26.198 106.866 33.6633 102.411 41.2202C98.619 47.651 94.9062 57.3185 98.7503 66.8537C99.2714 68.1462 99.8532 69.4534 100.416 70.7176C101.907 74.0681 103.449 77.5327 104.111 81.241C104.55 83.6968 104.592 86.204 104.632 88.6285C104.671 90.9919 104.711 93.4359 105.129 95.7612C105.899 100.04 108.763 104.856 113.232 105.32C116.146 105.623 118.894 104.036 121.556 102.325C122.297 100.94 122.997 99.3641 123.732 97.7117C125.187 94.4384 126.691 91.0537 128.733 88.7168C130.166 87.0766 131.928 85.9045 133.632 84.7709C135.708 83.3893 137.669 82.0846 139.113 79.9886C143.097 74.2063 143.331 67.3235 143.578 60.0368C143.731 55.5181 143.89 50.8454 145.048 46.5271L145.15 46.1462C147.56 37.166 151.202 23.5951 141.447 17.9584C139.522 16.8471 137.444 16.4097 135.366 16.4097Z" fill="rgb(59,46,53)" fill-opacity="0.100000001" fill-rule="nonzero" transform="matrix(0.569838,0.821757,-0.821757,0.569838,293.461,0)" />
</svg>
