<svg viewBox="0 0 46 39" xmlns="http://www.w3.org/2000/svg" xmlns:xlink="http://www.w3.org/1999/xlink" width="46.000000" height="39.000000" fill="none">
	<rect id="Frame" width="46.000000" height="39.000000" x="0.000000" y="0.000000" fill="rgb(255,255,255)" fill-opacity="0" />
	<g id="Group">
		<path id="Vector" d="M43.4831 12.9031C44.2839 9.19204 45.2448 0.992214 40.2793 0.149915C36.7794 -0.443735 29.5764 0.692903 27.6093 4.20352C26.1134 3.66395 24.5302 3.20861 23 3.21203C21.4694 3.20861 19.8862 3.66395 18.3906 4.20352C16.4232 0.692903 9.22047 -0.444046 5.72057 0.149915C0.755101 0.991903 1.71661 9.19173 2.51678 12.9031C-1.3621 17.6122 0.321405 24.4224 0.61408 30.5445C0.940525 37.3739 4.65431 39.5164 11.2545 38.8994C14.9145 38.5569 18.5636 36.8714 18.5729 32.879C18.5751 31.7461 18.5495 21.93 18.466 21.94C19.9772 21.93 21.4887 21.9456 23.0003 21.9717C24.5115 21.9459 26.023 21.9303 27.5345 21.94C27.4507 21.93 27.4251 31.7461 27.4273 32.879C27.4364 36.8714 31.0857 38.5572 34.7457 38.8994C41.3456 39.5164 45.0594 37.3739 45.3858 30.5445C45.6782 24.4224 47.362 17.6122 43.4831 12.9031ZM34.6081 4.28278C36.1844 3.86504 37.8223 3.59806 39.456 3.65867C40.7624 3.70715 40.5498 7.63332 40.2299 10.2348C37.3295 8.45604 34.2773 6.89266 31.127 5.59191C31.4431 5.44832 31.9541 5.13937 32.1204 5.06944C32.9228 4.73563 33.7692 4.50469 34.6081 4.28278ZM6.54356 3.65898C8.1539 3.50761 9.84084 3.90763 11.3918 4.28309C12.2392 4.48791 13.0659 4.76267 13.8798 5.06975C14.0487 5.13316 14.5593 5.44552 14.8748 5.5916C11.7195 6.89452 8.66295 8.46008 5.75934 10.2413C5.42664 7.65819 5.20432 3.78486 6.54356 3.65898ZM42.39 21.3706C42.162 24.9368 42.288 28.909 41.5786 32.4056C40.8556 35.9638 37.3073 35.9203 34.1816 35.1924C32.8927 34.8924 31.0573 34.157 31.056 33.4742C31.0516 31.462 31.047 29.451 31.0426 27.4388C31.0348 24.1623 32.0529 19.4003 28.1974 18.4601C28.0011 18.3855 27.7834 18.3355 27.5342 18.3339C26.1765 18.3255 24.6103 18.2155 23 18.1487C21.3896 18.2155 19.8231 18.3255 18.4657 18.3339C18.2162 18.3352 17.9988 18.3855 17.8025 18.4601C13.947 19.4 14.9652 24.162 14.9573 27.4388C14.953 29.4507 14.9483 31.462 14.9439 33.4742C14.9423 34.157 13.1072 34.8924 11.8183 35.1924C8.69235 35.9203 5.14397 35.9638 4.42104 32.4056C3.71187 28.909 3.83788 24.9368 3.60993 21.3706C3.306 16.6313 5.56329 14.4749 9.44717 12.2392C12.6641 10.3871 16.084 8.83026 19.6001 7.63208C20.7833 7.22927 21.9081 7.0835 23 7.1152C24.0915 7.0835 25.2166 7.22927 26.3998 7.63208C29.9157 8.82995 33.3355 10.3871 36.5531 12.2392C40.4366 14.4749 42.6936 16.6313 42.39 21.3706Z" fill="rgb(51,193,193)" fill-rule="nonzero" />
		<path id="Vector" d="M9.98134 27.3564C9.03452 27.3564 8.26562 28.1204 8.26562 29.0618C8.26562 30.0033 9.03421 30.7675 9.98134 30.7675C10.9288 30.7675 11.6974 30.0036 11.6974 29.0618C11.6974 28.1204 10.9288 27.3564 9.98134 27.3564Z" fill="rgb(51,193,193)" fill-rule="nonzero" />
		<path id="Vector" d="M36.0178 27.3564C35.0707 27.3564 34.3018 28.1204 34.3018 29.0618C34.3018 30.0033 35.0707 30.7675 36.0178 30.7675C36.9646 30.7675 37.7332 30.0036 37.7332 29.0618C37.7332 28.1204 36.9646 27.3564 36.0178 27.3564Z" fill="rgb(51,193,193)" fill-rule="nonzero" />
		<path id="Vector" d="M24.5725 34.6785C24.5284 34.9461 24.3789 35.053 24.1131 35.0605C23.8108 35.0682 23.7094 34.9299 23.5603 34.7068C23.5447 34.6834 23.5243 34.6701 23.5071 34.6505C23.5243 34.1215 23.5775 33.6 23.5697 33.0753C23.9658 32.8916 24.2723 32.5367 24.6706 32.1768C25.3329 31.5781 25.2097 30.7219 22.9993 30.6367C20.7889 30.7219 20.6657 31.5781 21.3283 32.1768C21.7495 32.5569 22.0663 32.9351 22.4968 33.1086C22.5147 33.6488 22.4359 34.1952 22.4177 34.7354C22.2717 34.9514 22.181 35.0415 21.8855 35.0608C21.6204 35.0769 21.4669 34.929 21.4262 34.6788C21.3133 33.9913 20.2646 34.2844 20.3765 34.9663C20.4913 35.6647 21.0973 36.0579 21.7564 36.1387C22.2595 36.1999 22.6591 36.0196 22.9821 35.7212C23.0541 35.7927 23.1297 35.8605 23.2238 35.9205C23.5115 36.1035 23.9105 36.1471 24.2423 36.1387C24.8995 36.121 25.5149 35.6184 25.6218 34.9663C25.7341 34.2844 24.686 33.9913 24.5725 34.6785Z" fill="rgb(51,193,193)" fill-rule="nonzero" />
	</g>
</svg>
